As a string of mysterious killings grips Seattle, Bella, whose high school graduation is fast approaching, is forced to choose between her love for vampire Edward and her friendship with werewolf Jacob..
 
http://www.imdb.com/title/tt1325004/

Subtitles (srt) : Dutch, English.

Covers included.

Bella Swan (Kristen Stewart) is wederom omcirkeld met gevaar als Seattle wordt geteisterd door een opeenvolging van geheimzinnige moorden en een kwaadwillige vampier die haar zoektocht naar wraak voortzet. In het midden van dit alles wordt zij gedwongen om tussen haar liefde voor Edward (Robert Pattinson) en haar vriendschap met Jacob (Taylor Lautner) te kiezen - wetend dat haar besluit de potentie heeft om de eeuwige strijd tussen vampier en weerwolf opnieuw aan te wakkeren. Terwijl haar eindexamen snel naderbij komt, wordt Bella geconfronteerd met het belangrijkste besluit van haar leven.
 
http://www.moviemeter.nl/film/60820

Ondertitels (srt) : Engels, Nederlands.

Hoesjes bijgevoegd.

General
Complete name                    : The Twilight Saga Eclipse-AC3-XviD-BRRip[Eng]2010\The Twilight Saga Eclipse-AC3-XviD-BRRip[Eng]2010.avi
Format                           : AVI
Format/Info                      : Audio Video Interleave
File size                        : 1.46 GiB
Duration                         : 2h 3mn
Overall bit rate                 : 1 688 Kbps
Writing application              : VirtualDubMod 1.5.4.1 (build 2178/release)
Writing library                  : VirtualDubMod build 2178/release
Source                           : The.Twilight.Saga.Eclipse.720p.Bluray.x264-CBGB

Video
ID                               : 0
Format                           : MPEG-4 Visual
Format profile                   : Simple@L3
Format settings, BVOP            : No
Format settings, QPel            : No
Format settings, GMC             : No warppoints
Format settings, Matrix          : Default (H.263)
Codec ID                         : XVID
Codec ID/Hint                    : XviD
Duration                         : 2h 3mn
Bit rate                         : 1 231 Kbps
Width                            : 720 pixels
Height                           : 304 pixels
Display aspect ratio             : 2.35:1
Frame rate                       : 23.976 fps
Resolution                       : 8 bits
Colorimetry                      : 4:2:0
Scan type                        : Progressive
Bits/(Pixel*Frame)               : 0.235
Stream size                      : 1.07 GiB (73%)
Writing library                  : XviD 1.1.2 (UTC 2006-11-01)

Audio
ID                               : 1
Format                           : AC-3
Format/Info                      : Audio Coding 3
Codec ID                         : 2000
Duration                         : 2h 3mn
Bit rate mode                    : Constant
Bit rate                         : 448 Kbps
Channel(s)                       : 6 channels
Channel positions                : Front: L C R, Surround: L R, LFE
Sampling rate                    : 48.0 KHz
Stream size                      : 397 MiB (27%)
Alignment                        : Split accross interleaves
Interleave, duration             : 42 ms (1.00 video frame)
Interleave, preload duration     : 500 ms

Thanks to Bradje for the source...